#N canvas -8 -8 1366 685 10;
#X declare -lib mrpeach;
#X obj 241 34 import mrpeach;
#X obj 167 -61 udpreceive 12000;
#X obj 171 -15 unpackOSC;
#X obj 170 41 print;
#X floatatom -114 311 5 0 0 0 - - -;
#X floatatom 5 317 5 0 0 0 - - -;
#X floatatom 108 356 5 0 0 0 - - -;
#X obj 822 542 dac~;
#X obj -98 556 +~;
#X obj 623 467 bp~;
#X obj 41 362 * 10.417;
#X obj 42 390 + 60;
#X obj 45 427 / 2 * 3;
#X obj 190 509 * 0.1;
#X text 40 316 controls the centre frequency of the bp filter;
#X text 144 356 controls the bandwidth of the bp filter;
#X obj 543 21 routeOSC /red1 /green1 /blue1 /red2 /green2 /blue2 /red3
/green3 /blue3 /red4 /green4 /blue4;
#X floatatom 619 101 5 0 0 0 - - -;
#X floatatom 658 101 5 0 0 0 - - -;
#X floatatom 699 101 5 0 0 0 - - -;
#X floatatom 742 98 5 0 0 0 - - -;
#X floatatom 779 98 5 0 0 0 - - -;
#X floatatom 817 101 5 0 0 0 - - -;
#X floatatom 889 -32 5 0 0 0 - - -;
#X floatatom 921 114 5 0 0 0 - - -;
#X floatatom 964 110 5 0 0 0 - - -;
#X text 630 81 R2;
#X text 662 82 G2;
#X text 701 81 B2;
#X text 747 79 R3;
#X text 780 78 G3;
#X text 820 83 B3;
#X text 888 -52 R4;
#X text 907 88 G4;
#X text 967 91 B4;
#X text -98 292 R1;
#X text 22 299 G1;
#X text 118 337 B1;
#X text 219 241 comment;
#X floatatom 619 227 5 0 0 0 - - -;
#X obj 619 263 / 3;
#X obj 619 163 +;
#X obj 619 196 +;
#X floatatom 619 295 5 0 0 0 - - -;
#X floatatom 619 360 5 0 0 0 - - -;
#X obj 619 327 / 255;
#X obj 673 385 pink~;
#X floatatom 679 240 5 0 0 0 - - -;
#X floatatom 758 363 5 0 0 0 - - -;
#X obj 679 273 * 10.417;
#X obj 680 301 + 60;
#X obj 683 338 / 2 * 3;
#X obj 788 396 * 0.1;
#X obj 813 491 bp~;
#X obj -121 341 / 2;
#X obj -117 383 mtof;
#X obj -97 481 osc~;
#X obj 792 296 metro;
#X floatatom 852 380 5 0 0 0 - - -;
#X obj 822 143 * -15.49;
#X obj 828 182 + 4000;
#X obj 790 253 bng 15 250 50 0 empty empty empty 17 7 0 10 -262144
-1 -1;
#X obj 839 343 counter 0 3;
#X obj 850 412 select 0 1 2 3;
#X obj 922 153 / 2;
#X obj 925 232 mtof;
#X obj 973 232 mtof;
#X obj 944 486 float;
#X obj 1000 487 float;
#X obj 1056 486 float;
#X floatatom 944 510 5 0 0 0 - - -;
#X floatatom 999 510 5 0 0 0 - - -;
#X floatatom 1055 512 5 0 0 0 - - -;
#X obj 977 545 float;
#X floatatom 977 571 5 0 0 0 - - -;
#X obj 896 552 osc~;
#X obj 1028 230 mtof;
#X obj 963 180 + 4;
#X obj 1016 178 + 7;
#X text 579 279;
#X text 605 298;
#X text 703 229;
#X text 685 212;
#X obj 716 457 *~;
#X connect 1 0 2 0;
#X connect 2 0 3 0;
#X connect 2 0 16 0;
#X connect 4 0 54 0;
#X connect 5 0 10 0;
#X connect 6 0 13 0;
#X connect 8 0 9 0;
#X connect 9 0 7 0;
#X connect 9 0 7 1;
#X connect 10 0 11 0;
#X connect 11 0 12 0;
#X connect 12 0 9 1;
#X connect 13 0 9 2;
#X connect 16 0 4 0;
#X connect 16 1 5 0;
#X connect 16 2 6 0;
#X connect 16 3 17 0;
#X connect 16 4 18 0;
#X connect 16 5 19 0;
#X connect 16 6 20 0;
#X connect 16 7 21 0;
#X connect 16 8 22 0;
#X connect 16 9 23 0;
#X connect 16 10 24 0;
#X connect 16 11 25 0;
#X connect 17 0 41 0;
#X connect 18 0 41 1;
#X connect 19 0 42 1;
#X connect 20 0 47 0;
#X connect 21 0 48 0;
#X connect 22 0 59 0;
#X connect 24 0 64 0;
#X connect 39 0 40 0;
#X connect 40 0 43 0;
#X connect 41 0 42 0;
#X connect 42 0 39 0;
#X connect 43 0 45 0;
#X connect 44 0 83 0;
#X connect 45 0 44 0;
#X connect 46 0 83 1;
#X connect 47 0 49 0;
#X connect 48 0 52 0;
#X connect 49 0 50 0;
#X connect 50 0 51 0;
#X connect 51 0 53 1;
#X connect 52 0 53 2;
#X connect 53 0 7 0;
#X connect 53 0 7 1;
#X connect 54 0 55 0;
#X connect 55 0 56 0;
#X connect 56 0 8 0;
#X connect 56 0 8 1;
#X connect 57 0 62 0;
#X connect 58 0 63 0;
#X connect 59 0 60 0;
#X connect 60 0 57 1;
#X connect 61 0 57 0;
#X connect 62 0 58 0;
#X connect 63 0 67 0;
#X connect 63 1 68 0;
#X connect 63 2 69 0;
#X connect 63 3 68 0;
#X connect 64 0 65 0;
#X connect 64 0 77 0;
#X connect 64 0 78 0;
#X connect 65 0 67 1;
#X connect 66 0 68 1;
#X connect 67 0 70 0;
#X connect 68 0 71 0;
#X connect 69 0 72 0;
#X connect 70 0 73 0;
#X connect 71 0 73 0;
#X connect 72 0 73 0;
#X connect 73 0 74 0;
#X connect 74 0 75 0;
#X connect 75 0 7 1;
#X connect 75 0 7 0;
#X connect 76 0 69 1;
#X connect 77 0 66 0;
#X connect 78 0 76 0;
#X connect 83 0 53 0;
